<svg xmlns="http://www.w3.org/2000/svg" viewBox="0 0 850.09 207.51"><title>MENU</title><g id="Layer_2" data-name="Layer 2"><g id="Layer_1-2" data-name="Layer 1"><path d="M9.67,201.34a7.55,7.55,0,0,1-3.42-.68,9.37,9.37,0,0,1-5.36-5,8.48,8.48,0,0,1-.12-7.31L63.08,15.09,65.6,9.16q3-7.3,10.38-8t9.93,7.76l21.23,81.71A9.89,9.89,0,0,1,106,98.06a9,9,0,0,1-5.94,4.45l-.23-.23.23-.22v.22a4.8,4.8,0,0,1-2.51.46q-7.3,0-9.59-7.08L74.27,41.8,19,194.73Q16.75,201.34,9.67,201.34Zm101.58,0a15.94,15.94,0,0,1-3-.22,9.82,9.82,0,0,1-5.71-5,8.75,8.75,0,0,1-.45-7.3L161.69,8q1.81-5,5.59-6.85a9.4,9.4,0,0,1,7.08-.8q3.3,1,4,3.54l65.74,184.42a9.38,9.38,0,0,1-.34,7.42,8.59,8.59,0,0,1-5.37,4.91,7.55,7.55,0,0,1-3.42.68q-6.86,0-9.13-6.39L170.59,41.34l-50,153.39Q118.32,201.34,111.25,201.34Z"/><path d="M304.34,201.34a9.7,9.7,0,0,1-7-2.73,9.12,9.12,0,0,1-2.85-6.85v-178a9.12,9.12,0,0,1,2.85-6.85,9.7,9.7,0,0,1,7-2.73H420.75a9.68,9.68,0,0,1,7,2.73,9.09,9.09,0,0,1,2.86,6.85,9.44,9.44,0,0,1-2.86,7,9.44,9.44,0,0,1-7,2.86H313.93v158.4H420.75a9.77,9.77,0,0,1,9.82,9.82,9.09,9.09,0,0,1-2.86,6.85,9.68,9.68,0,0,1-7,2.73ZM340.41,93.15a9.65,9.65,0,0,1-7-2.74,9.05,9.05,0,0,1-2.86-6.84,9.77,9.77,0,0,1,9.82-9.82H394.5a9.07,9.07,0,0,1,6.85,2.86,9.65,9.65,0,0,1,2.74,7,9.73,9.73,0,0,1-9.59,9.58Zm0,38.58a9.77,9.77,0,0,1-9.82-9.82,9.05,9.05,0,0,1,2.86-6.84,9.65,9.65,0,0,1,7-2.74H394.5a9.73,9.73,0,0,1,9.59,9.58,9.65,9.65,0,0,1-2.74,7,9.07,9.07,0,0,1-6.85,2.86Z"/><path d="M578.25,201.8a9,9,0,0,1-8.91-5.93l-60-137.41.92,91.3a9.77,9.77,0,0,1-16.67,7,9,9,0,0,1-3-6.73L489.46,16.46a9.57,9.57,0,0,1,2.85-6.85,9,9,0,0,1,6.73-3h.23a1.82,1.82,0,0,1,1.14.22q7.3-1.14,10,5.71l76.7,175.53a9.05,9.05,0,0,1,.11,7.3,10.32,10.32,0,0,1-5.13,5.48A11.06,11.06,0,0,1,578.25,201.8Zm48.16-2.74a9,9,0,0,1-8.91-5.93L540.81,17.6a9.33,9.33,0,0,1-.11-7.42,9.39,9.39,0,0,1,5.13-5.36,9.05,9.05,0,0,1,7.42,0,9.87,9.87,0,0,1,5.37,5.25l60.25,138.09v-84a9.07,9.07,0,0,1,2.86-6.85,9.65,9.65,0,0,1,7-2.74,9.73,9.73,0,0,1,9.58,9.59V189.48a9.73,9.73,0,0,1-9.58,9.58h-2.28Z"/><path d="M773.63,207.51q-31.05,0-53.41-18.72t-23.06-45.65V12.58a9.42,9.42,0,0,1,3-6.85,9.42,9.42,0,0,1,6.85-3H840.27a9.43,9.43,0,0,1,6.85,3,9.42,9.42,0,0,1,3,6.85V142.91l-.91,6.62.45-5.25.23.23q-1.14,26.25-23.39,44.62T773.63,207.51ZM716.11,98.17q22.82-22.36,57.52-22.36t57.51,22.36l-.45.23v-76H716.56v76Zm113.67,34.7-.23.23q-3.66-16.21-19.52-27t-36.4-10.84q-20.77,0-36.64,10.84T717.48,133.1l-.23-.23Zm-91.53,45q15.51,10,35.38,10t35.26-10q15.4-10,20-25.56l.23.23H717.93l.23-.23Q722.72,167.8,738.25,177.83Z"/></g></g></svg>