<?xml version="1.0" standalone="no"?>
<!DOCTYPE svg PUBLIC "-//W3C//DTD SVG 1.1//EN" "http://www.w3.org/Graphics/SVG/1.1/DTD/svg11.dtd" >
<svg xmlns="http://www.w3.org/2000/svg" xmlns:xlink="http://www.w3.org/1999/xlink" version="1.1">
<metadata>
Created by FontForge 20170731 at Tue Dec  6 17:57:16 2016
 By Aleksey,,,
 (c) phitradesign fonts 2016 All rights Reserved
</metadata>
<defs>
<font id="Artypa-Bold" horiz-adv-x="600" >
  <font-face 
    font-family="Artypa Bold"
    font-weight="400"
    font-stretch="normal"
    units-per-em="1000"
    panose-1="0 0 5 0 0 0 0 0 0 0"
    ascent="800"
    descent="-200"
    x-height="843"
    cap-height="859"
    bbox="36 -236 1272.67 890"
    underline-thickness="50"
    underline-position="-250"
    unicode-range="U+0020-2026"
  />
<missing-glyph horiz-adv-x="650" 
 />
    <glyph glyph-name=".notdef" horiz-adv-x="650" 
 />
    <glyph glyph-name=".null" horiz-adv-x="0" 
 />
    <glyph glyph-name="nonmarkingreturn" horiz-adv-x="333" 
 />
    <glyph glyph-name="space" unicode=" " horiz-adv-x="500" 
 />
    <glyph glyph-name="exclam" unicode="!" horiz-adv-x="299" 
d="M155 148q-18 0 -30.5 11t-12.5 27v667q0 16 13 26.5t30 10.5t29.5 -11t12.5 -26v-667q0 -16 -12.5 -27t-29.5 -11zM150 -18q-25 0 -43 18t-18 43q0 24 18 41t43 18q23 1 41.5 -17t18.5 -42q0 -25 -18 -43t-42 -18z" />
    <glyph glyph-name="quotedbl" unicode="&#x22;" 
 />
    <glyph glyph-name="numbersign" unicode="#" 
 />
    <glyph glyph-name="quotesingle" unicode="'" 
 />
    <glyph glyph-name="asterisk" unicode="*" 
 />
    <glyph glyph-name="comma" unicode="," horiz-adv-x="253" 
d="M82 -149q-17 0 -26 7q-30 24 -15 52l106 174q9 13 26 15.5t30 -7.5q14 -11 18.5 -26.5t-4.5 -30.5l-103 -168q-10 -16 -32 -16z" />
    <glyph glyph-name="period" unicode="." horiz-adv-x="299" 
d="M150 -18q-25 0 -43 18t-18 43q0 24 18 41t43 18q23 1 41.5 -17t18.5 -42q0 -25 -18 -43t-42 -18z" />
    <glyph glyph-name="slash" unicode="/" 
 />
    <glyph glyph-name="colon" unicode=":" 
 />
    <glyph glyph-name="semicolon" unicode=";" 
 />
    <glyph glyph-name="question" unicode="?" horiz-adv-x="692" 
d="M275 141q-7 0 -15 3q-34 13 -27 56q5 24 13 45t14.5 36t19 30.5t19 23.5t22 20t20 15.5t21.5 14.5t19 12q56 38 88 74q32 32 42 97t-10 115q-33 78 -128 81q-118 6 -167 -61q-11 -15 -18 -31.5t-8 -25.5l-2 -10q-2 -18 -15.5 -30t-32.5 -11q-17 1 -29.5 15t-11.5 32h1v-1
h-1q0 6 3.5 24t21 53.5t45.5 65t85 51t132 18.5q73 -3 127 -38.5t80 -98.5q29 -73 15 -163.5t-63 -142.5q-50 -50 -104 -86q-41 -28 -70 -63.5t-43 -90.5l-1 1v-1h1q-10 -29 -43 -29zM288 -18q-25 0 -43 18t-18 43q0 24 18 41t43 18q23 1 41.5 -17t18.5 -42q0 -25 -18 -43
t-42 -18z" />
    <glyph glyph-name="A" unicode="A" horiz-adv-x="949" 
d="M313 -26q-9 0 -14 2q-17 5 -24.5 20.5t-2.5 32.5l255 785q4 17 20.5 25t32.5 2q17 -4 24.5 -20t2.5 -33l-140 -434l360 1q18 0 30.5 -12.5t12.5 -30.5t-12.5 -30t-30.5 -12l-379 -1q-7 0 -10 1l1 1l-86 -268q-10 -29 -40 -29zM122 -16q-10 0 -14 2q-17 5 -25 21t-1 32
l254 786q5 17 21 24.5t33 1.5l-1 -1v1v1q17 -5 25 -21t2 -32l-254 -786q-10 -29 -40 -29z" />
    <glyph glyph-name="B" unicode="B" horiz-adv-x="1018" 
d="M608 -26q-124 0 -212 88t-88 212q0 125 88 213t212 88q20 0 39 -3v-2l-13 -11v5q0 118 -72 174q-44 34 -117 45.5t-122.5 7.5t-99.5 -13l1 1v-700q0 -17 -12.5 -29.5t-29.5 -12.5q-18 0 -30.5 12t-12.5 30v733q0 14 9.5 26t23.5 15v-1h-1v1q13 4 36 8.5t79 10.5t108 4
t114 -19t106 -51q105 -82 105 -242q0 -7 -1 -10l-1 1q87 -34 139.5 -111t52.5 -170q0 -124 -88.5 -212t-212.5 -88zM608 59q89 0 152.5 63t63.5 152t-63.5 152.5t-152.5 63.5t-152 -63.5t-63 -152.5t63 -152t152 -63z" />
    <glyph glyph-name="C" unicode="C" horiz-adv-x="849" 
d="M535 -26q-58 0 -110 13q-178 46 -272.5 205t-49.5 337q30 117 113 201.5t197 117t231 3.5q17 -5 26 -20t5 -32l-91 -360v1l135 -426l-13 38h1q6 -16 -1.5 -32t-23.5 -21q-71 -25 -147 -25zM447 70q86 -21 167 -2l-1 -1l-113 358q-4 9 -2 22h1l9 39l74 291l1 -1
q-24 3 -48 3q-99 0 -184 -51q-129 -76 -165 -221q-24 -95 2.5 -187.5t95 -159t163.5 -90.5z" />
    <glyph glyph-name="D" unicode="D" horiz-adv-x="956" 
d="M347 -16q-67 0 -160 11q-18 3 -28.5 16.5t-8.5 31.5h1v1h-1q3 17 17.5 27.5t31.5 8.5q322 -45 460 83q103 95 91 293q-4 69 -20.5 121.5t-43 86.5t-62 58t-77.5 34.5t-90 17t-99 5.5t-105 0q-4 0 -14.5 -0.5t-15.5 -0.5l1 1v-405q0 -17 -12.5 -29.5t-29.5 -12.5
q-18 0 -30.5 12t-12.5 30v447q0 18 12 30q13 12 31 12h6q10 0 31.5 0.5t32.5 0.5q46 3 94 0.5t96 -4.5t94.5 -14t88.5 -28.5t78.5 -47.5t64 -72t45 -101t22.5 -135q15 -237 -119 -362q-125 -116 -369 -116z" />
    <glyph glyph-name="E" unicode="E" horiz-adv-x="864" 
d="M182 -5q-18 0 -30.5 12t-12.5 30v780q0 18 12.5 30t30.5 12h510q18 0 30.5 -12t12.5 -30t-12.5 -30.5t-30.5 -12.5h-468v-694h468q18 0 30.5 -12.5t12.5 -30.5t-12.5 -30t-30.5 -12h-510zM340 300q-18 0 -30.5 12.5t-12.5 30.5t12.5 30t30.5 12h237q17 0 29.5 -12.5
t12.5 -29.5q0 -18 -12 -30.5t-30 -12.5h-237zM340 469q-18 0 -30.5 12t-12.5 30t12.5 30.5t30.5 12.5h237q18 0 30 -12.5t12 -30.5q0 -17 -12.5 -29.5t-29.5 -12.5h-237z" />
    <glyph glyph-name="F" unicode="F" horiz-adv-x="844" 
d="M182 -5q-18 0 -30.5 12t-12.5 30v780q0 18 12.5 30t30.5 12h510q18 0 30.5 -12t12.5 -30t-12.5 -30.5t-30.5 -12.5h-468v-737q0 -17 -12.5 -29.5t-29.5 -12.5zM350 300q-18 0 -30 12.5t-12 30.5q0 17 12.5 29.5t29.5 12.5h237q18 0 30.5 -12t12.5 -30t-12.5 -30.5
t-30.5 -12.5h-237zM350 469q-17 0 -29.5 12.5t-12.5 29.5q0 18 12 30.5t30 12.5h237q18 0 30.5 -12.5t12.5 -30.5t-12.5 -30t-30.5 -12h-237z" />
    <glyph glyph-name="G" unicode="G" horiz-adv-x="1053" 
d="M527 -14q-181 0 -309.5 128t-128.5 310q0 181 128.5 309t309.5 128q17 0 27 -1q16 -1 28 -13t12 -29v-306h325q16 0 28 -11t14 -27q3 -26 3 -50q0 -181 -128 -309.5t-309 -128.5zM527 71q146 0 249 103.5t103 249.5v3h-328q-17 0 -29.5 12.5t-12.5 29.5v308l1 -1
q-141 -7 -238.5 -109t-97.5 -243q0 -146 103.5 -249.5t249.5 -103.5z" />
    <glyph glyph-name="H" unicode="H" horiz-adv-x="1205" 
d="M407 502q-18 0 -30 12.5t-12 30.5v272q0 17 12.5 29.5t29.5 12.5h387q18 0 30.5 -12t12.5 -30v-272q0 -18 -12.5 -30.5t-30.5 -12.5h-387zM192 -5q-18 0 -30.5 12t-12.5 30v780q0 18 12.5 30t30.5 12q17 0 29.5 -12.5t12.5 -29.5v-780q0 -17 -12.5 -29.5t-29.5 -12.5z
M407 11q-17 0 -29.5 12.5t-12.5 29.5v272q0 18 12 30.5t30 12.5h387q18 0 30.5 -12.5t12.5 -30.5v-272q0 -18 -12.5 -30t-30.5 -12h-387zM752 96v186h-302v-186h302zM752 587v187h-302v-187h302zM1013 -5q-17 0 -30 12.5t-13 29.5v780q0 17 13 29.5t30 12.5q18 0 30.5 -12
t12.5 -30v-780q0 -18 -12.5 -30t-30.5 -12z" />
    <glyph glyph-name="I" unicode="I" horiz-adv-x="423" 
d="M212 -5q-18 0 -30.5 12t-12.5 30v780q0 18 12.5 30t30.5 12q17 0 29.5 -12.5t12.5 -29.5v-780q0 -17 -12.5 -29.5t-29.5 -12.5z" />
    <glyph glyph-name="J" unicode="J" horiz-adv-x="606" 
d="M245 -236q-33 0 -81 8q-17 3 -27.5 18.5t-6.5 32.5l1 -1h-1q3 17 18 27t32 7q113 -21 163 23q39 34 39 97v2v286q0 18 12.5 30t30.5 12q17 0 29.5 -12.5t12.5 -29.5v-286q0 -104 -69 -163q-57 -51 -153 -51zM245 -5q-17 0 -29.5 12.5t-12.5 29.5v780q0 17 12.5 29.5
t29.5 12.5q18 0 30.5 -12t12.5 -30v-780q0 -18 -12.5 -30t-30.5 -12z" />
    <glyph glyph-name="K" unicode="K" horiz-adv-x="976" 
d="M182 -5q-18 0 -30.5 12t-12.5 30v230q0 20 16 34l307 239q12 10 31 8q18 -2 29 -16l347 -469q14 -21 4 -45q-11 -23 -38 -23h-653zM750 80l-271 365l-255 -200v1v-166h526zM458 779h-239v-170zM177 484q-9 0 -19 5v1l-1 -1q-23 11 -23 38v295q0 17 13 30t30 13h416
q30 0 41 -30q9 -30 -17 -48l-416 -295q-11 -8 -24 -8z" />
    <glyph glyph-name="L" unicode="L" horiz-adv-x="825" 
d="M376 -11q-25 0 -37 24q-10 10 -10 27v203q0 17 12.5 29.5t29.5 12.5q18 0 30.5 -12t12.5 -30v-168h289q17 0 30 -13t13 -30t-13 -30t-30 -13h-327zM182 -5q-18 0 -30.5 12t-12.5 30v780q0 18 12.5 30t30.5 12q17 0 29.5 -12.5t12.5 -29.5v-780q0 -17 -12.5 -29.5
t-29.5 -12.5z" />
    <glyph glyph-name="M" unicode="M" horiz-adv-x="1230" 
d="M566 -5q-8 0 -13 1q-17 6 -25 22t-2 32l261 792q8 22 24.5 30t31 3.5t17.5 -15.5l288 -808q6 -16 -1.5 -32.5t-23.5 -21.5q-6 -3 -15 -3q-30 0 -40 28l-242 673l-219 -672q-10 -29 -41 -29zM121 -5q-9 0 -15 3q-16 6 -23.5 22t-0.5 32l273 759l11 26q13 32 45.5 35
t43.5 -34l93 -358q4 -17 -5 -32.5t-26 -19.5l-1 1l1 1v-1q-3 -2 -11 -2q-32 0 -42 31l-60 236l-242 -670q-10 -29 -41 -29z" />
    <glyph glyph-name="N" unicode="N" horiz-adv-x="910" 
d="M518 -7q-28 0 -39 26l-263 602l4 -400q0 -18 -12.5 -30.5t-30.5 -12.5q-17 0 -30 12.5t-13 29.5l-5 585q0 17 12.5 30t29.5 13h1q4 0 5 -1q32 5 44 -25l336 -769q7 -16 0.5 -32t-22.5 -24q-10 -4 -17 -4zM729 5q-28 0 -39 26l-336 769q-7 16 -0.5 32.5t22.5 23.5t32.5 0
t23.5 -23l264 -605v368q0 18 12.5 30t30.5 12q17 0 29.5 -12.5t12.5 -29.5v-549q0 -17 -12.5 -29.5t-29.5 -12.5h-4h-6z" />
    <glyph glyph-name="O" unicode="O" horiz-adv-x="1024" 
d="M512 -3q-175 0 -299 124t-124 299t124 299t299 124t299 -124t124 -299t-124 -299t-299 -124zM512 83q140 0 239 99t99 238q0 140 -99 239t-239 99t-239 -99t-99 -239q0 -139 99 -238t239 -99zM512 309q-55 0 -93.5 38.5t-38.5 93.5q0 54 38.5 92.5t93.5 38.5t93.5 -38.5
t38.5 -92.5q0 -55 -38.5 -93.5t-93.5 -38.5zM512 394q20 0 33.5 14t13.5 33t-14 32.5t-33 13.5q-20 0 -33 -13.5t-13 -32.5q0 -20 13.5 -33.5t32.5 -13.5z" />
    <glyph glyph-name="P" unicode="P" horiz-adv-x="824" 
d="M182 -21q-18 0 -30.5 12.5t-12.5 30.5v778q0 32 31 41q18 6 57.5 12t109 11.5t146.5 -13.5t133 -62q124 -98 119 -302q-1 -17 -14 -29.5t-31 -11.5v1h1v-1q-17 0 -29.5 13t-11.5 30q3 163 -87 232q-110 88 -340 45l1 1v-745q0 -18 -12 -30.5t-30 -12.5z" />
    <glyph glyph-name="Q" unicode="Q" horiz-adv-x="1044" 
d="M913 -48q-20 0 -32 15l-105 124h1q-117 -94 -265 -94q-175 0 -299 124t-124 299t124 299t299 124t299 -124t124 -299q0 -151 -98 -271v2l109 -129q11 -14 9.5 -31.5t-15.5 -28.5q-11 -10 -27 -10zM512 83q32 0 57 5v-2l-232 261q-12 12 -11 30t14 29q13 12 30.5 11
t29.5 -14l257 -288h-1q36 17 66 41v-1l-199 237q-11 13 -9.5 31t14.5 28q13 12 30.5 10.5t28.5 -15.5l195 -230l-1 -1q69 94 69 205q0 140 -99 239t-239 99t-239 -99t-99 -239q0 -139 99 -238t239 -99z" />
    <glyph glyph-name="R" unicode="R" horiz-adv-x="958" 
d="M182 -5q-18 0 -30.5 12.5t-12.5 30.5v762q0 32 31 42q11 3 32.5 8t73 10.5t101 4t109 -19t103.5 -51.5q123 -96 118 -300q-1 -18 -14 -30t-31 -11v1h1v-1q-17 0 -29.5 13t-11.5 30q3 162 -86 230q-105 82 -313 41l1 1v-730q0 -18 -12 -30.5t-30 -12.5zM619 -32
q-17 0 -33 14l1 1l-15 17l-250 299q-10 14 -8.5 31.5t14.5 28.5v-1l1 1l-1 1q14 10 31.5 8.5t28.5 -14.5h-1l26 -30l239 -286q10 -14 8.5 -31.5t-14.5 -28.5v1l-1 -1h1q-11 -10 -27 -10zM816 -16q-21 0 -32 16l-388 468q-11 13 -9 31t15 29t31 9.5t28 -14.5l389 -469
q11 -15 9 -32t-15 -29q-14 -9 -28 -9z" />
    <glyph glyph-name="S" unicode="S" horiz-adv-x="853" 
d="M403 -27q-149 0 -269 106q-14 12 -15 29.5t11 30.5q11 13 29 14.5t31 -9.5l-1 -1h1q71 -61 154.5 -78.5t160.5 12.5q61 25 98.5 71t44.5 105q8 79 -40 136q-48 54 -133 59v1h1v-1q-18 0 -30 13.5t-11 31.5q1 17 14 29t30 11q119 -5 193 -89q72 -83 61 -199
q-9 -82 -61.5 -148.5t-134.5 -98.5q-66 -25 -134 -25zM393 300q-3 0 -6 0.5t-4 0.5q-52 15 -93.5 37.5t-67 47t-44.5 52t-26.5 52t-13.5 48.5t-4 41t1 29q11 102 85.5 176.5t171.5 81.5q141 11 232 -74q36 -36 57.5 -87t19.5 -96q-1 -17 -14.5 -28.5t-31.5 -10.5
q-17 1 -28.5 14t-11.5 30h1v1h-1q2 27 -12.5 59.5t-38.5 56.5q-60 59 -165 50q-67 -5 -119.5 -57.5t-59.5 -123.5q-8 -75 40.5 -131.5t145.5 -85.5q16 -4 25 -20t4 -32q-10 -31 -42 -31z" />
    <glyph glyph-name="T" unicode="T" horiz-adv-x="1108" 
d="M649 -11q-17 0 -30 13t-13 30v785q0 18 12.5 30t30.5 12h347q18 0 30.5 -12t12.5 -30t-12.5 -30.5t-30.5 -12.5h-305v-742q0 -17 -12.5 -30t-29.5 -13zM438 -11q-17 0 -30 13t-13 30v742h-283q-18 0 -30.5 12.5t-12.5 30.5t12.5 30t30.5 12h326q18 0 30.5 -12t12.5 -30
v-785q0 -17 -13 -30t-30 -13z" />
    <glyph glyph-name="U" unicode="U" horiz-adv-x="928" 
d="M464 -32q-136 0 -234 82t-101 200v2v570q0 17 13 30t30 13h584q17 0 30 -13t13 -30v-571l-4 -29l2 23l1 -1q-5 -115 -102.5 -195.5t-231.5 -80.5zM464 54q87 0 154.5 44t87.5 112l1 -1h-487l1 1q20 -68 88 -112t155 -44zM710 295l-1 -1q-16 71 -85.5 118.5t-159.5 47.5
q-91 0 -160.5 -47.5t-85.5 -118.5l-1 1h493zM212 447q100 98 252 98t252 -98l-2 -1v333h-500v-333z" />
    <glyph glyph-name="V" unicode="V" horiz-adv-x="951" 
d="M567 -11q-14 0 -25 8.5t-15 21.5l-256 785q-4 17 4 32.5t25 20.5q16 5 31.5 -3t20.5 -25l219 -672l218 672q5 17 21 25.5t33 3.5v-1l1 -1v1q16 -6 23.5 -21.5t2.5 -31.5l-254 -785l-1 -1h1q-10 -29 -40 -29h-5h-4zM376 -11q-13 0 -24.5 8.5t-15.5 21.5l-256 785
q-5 17 3.5 33t25.5 20q16 5 32 -3t21 -24l255 -785q5 -17 -3.5 -33t-24.5 -20h-1l1 -1q-8 -2 -13 -2z" />
    <glyph glyph-name="W" unicode="W" horiz-adv-x="1352" 
d="M567 -11q-14 0 -25 8.5t-15 21.5l-256 785q-4 17 4 32.5t25 20.5q16 5 31.5 -3t20.5 -25l219 -672l218 672q5 17 21 25.5t33 3.5v-1l1 -1v1q16 -6 23.5 -21.5t2.5 -31.5l-117 -360l135 -392q7 -17 -1.5 -33.5t-25.5 -21.5q-4 -2 -13 -2q-30 0 -40 28l-98 286l-94 -290
l-1 -1h1q-10 -29 -40 -29h-5h-4zM376 -11q-13 0 -24.5 8.5t-15.5 21.5l-256 785q-5 17 3.5 33t25.5 20q16 5 32 -3t21 -24l255 -785q5 -17 -3.5 -33t-24.5 -20h-1l1 -1q-8 -2 -13 -2zM976 -11q-3 0 -13 2q-17 5 -25 21t-2 33l254 785q5 16 20.5 24t32.5 4v-1v-1l1 1
q17 -5 24.5 -21t1.5 -32l-253 -785q-4 -13 -16 -21.5t-25 -8.5z" />
    <glyph glyph-name="X" unicode="X" horiz-adv-x="832" 
d="M132 -11q-25 0 -39 24h1v1l-1 -1q-11 24 5 45h1l18 24l267 330q12 15 32 15t34 -15l284 -353q16 -21 5 -46q-11 -24 -38 -24h-569zM612 75l-196 242l-195 -242h391zM416 500q-17 0 -29 12v1l-1 -1l-284 274q-20 22 -9 46q10 27 39 27h569q29 0 39 -26q11 -25 -9 -47
l-285 -274q-12 -12 -30 -12zM595 774h-358l179 -172z" />
    <glyph glyph-name="Y" unicode="Y" horiz-adv-x="981" 
d="M406 -11q-17 0 -30 13t-13 30v470v-1l-272 287q-12 13 -12 30.5t13 29.5t30.5 11t30.5 -13l263 -277l21 -23v1q12 -14 12 -29v-486q0 -17 -13 -30t-30 -13zM575 -11q-17 0 -30 13t-13 30v486q0 16 12 30l284 297q12 13 30 14t31 -11q12 -13 12.5 -30.5t-11.5 -30.5
l-273 -286v1v-470q0 -17 -12.5 -30t-29.5 -13z" />
    <glyph glyph-name="Z" unicode="Z" horiz-adv-x="1008" 
d="M161 24q-11 0 -23 7q-14 10 -18 27t6 32l476 689h-410q-18 0 -30 12.5t-12 30.5q0 17 12.5 30t29.5 13h491q25 0 38 -23q11 -22 -3 -44v1l-18 -27l-504 -731q-14 -17 -35 -17zM353 -11q-25 0 -38 23q-12 23 3 44l493 707q10 14 27.5 17.5t31.5 -6.5t17.5 -27.5
t-6.5 -31.5l-446 -640l385 3q17 0 29.5 -12t13.5 -29h-1v-1h1q0 -17 -13 -30t-30 -13z" />
    <glyph glyph-name="backslash" unicode="\" 
 />
    <glyph glyph-name="asciicircum" unicode="^" 
 />
    <glyph glyph-name="underscore" unicode="_" 
 />
    <glyph glyph-name="a" unicode="a" horiz-adv-x="1124" 
d="M82 39l254 786q5 17 20.5 24.5t32.5 2.5t25 -21t2 -32l-254 -786q-10 -29 -40 -29q-10 0 -14 2q-17 5 -25 21t-1 32zM272 29l255 785q4 17 20.5 25t32.5 2q17 -4 24.5 -20t2.5 -33l-140 -434l305 1l-88 160l7 -11q-5 14 1 28t19 21q14 9 30 4t25 -20l267 -482
q17 -44 -17 -63q-14 -6 -30.5 -1.5t-24.5 18.5l-143 261l-370 -1q-6 0 -9 1l-86 -267q-10 -29 -40 -29q-9 0 -14 2q-17 5 -24.5 20.5t-2.5 32.5z" />
    <glyph glyph-name="b" unicode="b" horiz-adv-x="1018" 
d="M608 -26q-124 0 -212 88t-88 212q0 125 88 213t212 88q20 0 39 -3v-2l-13 -11v5q0 118 -72 174q-44 34 -117 45.5t-122.5 7.5t-99.5 -13l1 1v-700q0 -17 -12.5 -29.5t-29.5 -12.5q-18 0 -30.5 12t-12.5 30v733q0 14 9.5 26t23.5 15v-1h-1v1q13 4 36 8.5t79 10.5t108 4
t114 -19t106 -51q105 -82 105 -242q0 -7 -1 -10l-1 1q87 -34 139.5 -111t52.5 -170q0 -124 -88.5 -212t-212.5 -88zM608 59q89 0 152.5 63t63.5 152t-63.5 152.5t-152.5 63.5t-152 -63.5t-63 -152.5t63 -152t152 -63z" />
    <glyph glyph-name="c" unicode="c" horiz-adv-x="849" 
d="M535 -26q-58 0 -110 13q-178 46 -272.5 205t-49.5 337q30 117 113 201.5t197 117t231 3.5q17 -5 26 -20t5 -32l-91 -360v1l135 -426l-13 38h1q6 -16 -1.5 -32t-23.5 -21q-71 -25 -147 -25zM447 70q86 -21 167 -2l-1 -1l-113 358q-4 9 -2 22h1l9 39l74 291l1 -1
q-24 3 -48 3q-99 0 -184 -51q-129 -76 -165 -221q-24 -95 2.5 -187.5t95 -159t163.5 -90.5z" />
    <glyph glyph-name="d" unicode="d" horiz-adv-x="956" 
d="M347 -16q-67 0 -160 11q-18 3 -28.5 16.5t-8.5 31.5h1v1h-1q3 17 17.5 27.5t31.5 8.5q322 -45 460 83q103 95 91 293q-4 69 -20.5 121.5t-43 86.5t-62 58t-77.5 34.5t-90 17t-99 5.5t-105 0q-4 0 -14.5 -0.5t-15.5 -0.5l1 1v-405q0 -17 -12.5 -29.5t-29.5 -12.5
q-18 0 -30.5 12t-12.5 30v447q0 18 12 30q13 12 31 12h6q10 0 31.5 0.5t32.5 0.5q46 3 94 0.5t96 -4.5t94.5 -14t88.5 -28.5t78.5 -47.5t64 -72t45 -101t22.5 -135q15 -237 -119 -362q-125 -116 -369 -116z" />
    <glyph glyph-name="e" unicode="e" horiz-adv-x="864" 
d="M182 -5q-18 0 -30.5 12t-12.5 30v780q0 18 12.5 30t30.5 12h510q18 0 30.5 -12t12.5 -30t-12.5 -30.5t-30.5 -12.5h-468v-694h468q18 0 30.5 -12.5t12.5 -30.5t-12.5 -30t-30.5 -12h-510zM340 300q-18 0 -30.5 12.5t-12.5 30.5t12.5 30t30.5 12h237q17 0 29.5 -12.5
t12.5 -29.5q0 -18 -12 -30.5t-30 -12.5h-237zM340 469q-18 0 -30.5 12t-12.5 30t12.5 30.5t30.5 12.5h237q18 0 30 -12.5t12 -30.5q0 -17 -12.5 -29.5t-29.5 -12.5h-237z" />
    <glyph glyph-name="f" unicode="f" horiz-adv-x="844" 
d="M182 -5q-18 0 -30.5 12t-12.5 30v780q0 18 12.5 30t30.5 12h510q18 0 30.5 -12t12.5 -30t-12.5 -30.5t-30.5 -12.5h-468v-737q0 -17 -12.5 -29.5t-29.5 -12.5zM350 300q-18 0 -30 12.5t-12 30.5q0 17 12.5 29.5t29.5 12.5h237q18 0 30.5 -12t12.5 -30t-12.5 -30.5
t-30.5 -12.5h-237zM350 469q-17 0 -29.5 12.5t-12.5 29.5q0 18 12 30.5t30 12.5h237q18 0 30.5 -12.5t12.5 -30.5t-12.5 -30t-30.5 -12h-237z" />
    <glyph glyph-name="g" unicode="g" horiz-adv-x="1053" 
d="M527 -14q-181 0 -309.5 128t-128.5 310q0 181 128.5 309t309.5 128q17 0 27 -1q16 -1 28 -13t12 -29v-306h325q16 0 28 -11t14 -27q3 -26 3 -50q0 -181 -128 -309.5t-309 -128.5zM527 71q146 0 249 103.5t103 249.5v3h-328q-17 0 -29.5 12.5t-12.5 29.5v308l1 -1
q-141 -7 -238.5 -109t-97.5 -243q0 -146 103.5 -249.5t249.5 -103.5z" />
    <glyph glyph-name="h" unicode="h" horiz-adv-x="1205" 
d="M407 502q-18 0 -30 12.5t-12 30.5v272q0 17 12.5 29.5t29.5 12.5h387q18 0 30.5 -12t12.5 -30v-272q0 -18 -12.5 -30.5t-30.5 -12.5h-387zM192 -5q-18 0 -30.5 12t-12.5 30v780q0 18 12.5 30t30.5 12q17 0 29.5 -12.5t12.5 -29.5v-780q0 -17 -12.5 -29.5t-29.5 -12.5z
M407 11q-17 0 -29.5 12.5t-12.5 29.5v272q0 18 12 30.5t30 12.5h387q18 0 30.5 -12.5t12.5 -30.5v-272q0 -18 -12.5 -30t-30.5 -12h-387zM752 96v186h-302v-186h302zM752 587v187h-302v-187h302zM1013 -5q-17 0 -30 12.5t-13 29.5v780q0 17 13 29.5t30 12.5q18 0 30.5 -12
t12.5 -30v-780q0 -18 -12.5 -30t-30.5 -12z" />
    <glyph glyph-name="i" unicode="i" horiz-adv-x="423" 
d="M212 -5q-18 0 -30.5 12t-12.5 30v780q0 18 12.5 30t30.5 12q17 0 29.5 -12.5t12.5 -29.5v-780q0 -17 -12.5 -29.5t-29.5 -12.5z" />
    <glyph glyph-name="j" unicode="j" horiz-adv-x="606" 
d="M245 -236q-33 0 -81 8q-17 3 -27.5 18.5t-6.5 32.5l1 -1h-1q3 17 18 27t32 7q113 -21 163 23q39 34 39 97v2v286q0 18 12.5 30t30.5 12q17 0 29.5 -12.5t12.5 -29.5v-286q0 -104 -69 -163q-57 -51 -153 -51zM245 -5q-17 0 -29.5 12.5t-12.5 29.5v780q0 17 12.5 29.5
t29.5 12.5q18 0 30.5 -12t12.5 -30v-780q0 -18 -12.5 -30t-30.5 -12z" />
    <glyph glyph-name="k" unicode="k" horiz-adv-x="976" 
d="M182 -5q-18 0 -30.5 12t-12.5 30v230q0 20 16 34l307 239q12 10 31 8q18 -2 29 -16l347 -469q14 -21 4 -45q-11 -23 -38 -23h-653zM750 80l-271 365l-255 -200v1v-166h526zM458 779h-239v-170zM177 484q-9 0 -19 5v1l-1 -1q-23 11 -23 38v295q0 17 13 30t30 13h416
q30 0 41 -30q9 -30 -17 -48l-416 -295q-11 -8 -24 -8z" />
    <glyph glyph-name="l" unicode="l" horiz-adv-x="825" 
d="M376 -11q-25 0 -37 24q-10 10 -10 27v203q0 17 12.5 29.5t29.5 12.5q18 0 30.5 -12t12.5 -30v-168h289q17 0 30 -13t13 -30t-13 -30t-30 -13h-327zM182 -5q-18 0 -30.5 12t-12.5 30v780q0 18 12.5 30t30.5 12q17 0 29.5 -12.5t12.5 -29.5v-780q0 -17 -12.5 -29.5
t-29.5 -12.5z" />
    <glyph glyph-name="m" unicode="m" horiz-adv-x="1230" 
d="M566 -5q-8 0 -13 1q-17 6 -25 22t-2 32l261 792q8 22 24.5 30t31 3.5t17.5 -15.5l288 -808q6 -16 -1.5 -32.5t-23.5 -21.5q-6 -3 -15 -3q-30 0 -40 28l-242 673l-219 -672q-10 -29 -41 -29zM121 -5q-9 0 -15 3q-16 6 -23.5 22t-0.5 32l273 759l11 26q13 32 45.5 35
t43.5 -34l93 -358q4 -17 -5 -32.5t-26 -19.5l-1 1l1 1v-1q-3 -2 -11 -2q-32 0 -42 31l-60 236l-242 -670q-10 -29 -41 -29z" />
    <glyph glyph-name="n" unicode="n" horiz-adv-x="910" 
d="M518 -7q-28 0 -39 26l-263 602l4 -400q0 -18 -12.5 -30.5t-30.5 -12.5q-17 0 -30 12.5t-13 29.5l-5 585q0 17 12.5 30t29.5 13h1q4 0 5 -1q32 5 44 -25l336 -769q7 -16 0.5 -32t-22.5 -24q-10 -4 -17 -4zM729 5q-28 0 -39 26l-336 769q-7 16 -0.5 32.5t22.5 23.5t32.5 0
t23.5 -23l264 -605v368q0 18 12.5 30t30.5 12q17 0 29.5 -12.5t12.5 -29.5v-549q0 -17 -12.5 -29.5t-29.5 -12.5h-4h-6z" />
    <glyph glyph-name="o" unicode="o" horiz-adv-x="1024" 
d="M512 -3q-175 0 -299 124t-124 299t124 299t299 124t299 -124t124 -299t-124 -299t-299 -124zM512 83q140 0 239 99t99 238q0 140 -99 239t-239 99t-239 -99t-99 -239q0 -139 99 -238t239 -99zM512 309q-55 0 -93.5 38.5t-38.5 93.5q0 54 38.5 92.5t93.5 38.5t93.5 -38.5
t38.5 -92.5q0 -55 -38.5 -93.5t-93.5 -38.5zM512 394q20 0 33.5 14t13.5 33t-14 32.5t-33 13.5q-20 0 -33 -13.5t-13 -32.5q0 -20 13.5 -33.5t32.5 -13.5z" />
    <glyph glyph-name="p" unicode="p" horiz-adv-x="824" 
d="M182 -21q-18 0 -30.5 12.5t-12.5 30.5v778q0 32 31 41q18 6 57.5 12t109 11.5t146.5 -13.5t133 -62q124 -98 119 -302q-1 -17 -14 -29.5t-31 -11.5v1h1v-1q-17 0 -29.5 13t-11.5 30q3 163 -87 232q-110 88 -340 45l1 1v-745q0 -18 -12 -30.5t-30 -12.5z" />
    <glyph glyph-name="q" unicode="q" horiz-adv-x="1044" 
d="M913 -48q-20 0 -32 15l-105 124h1q-117 -94 -265 -94q-175 0 -299 124t-124 299t124 299t299 124t299 -124t124 -299q0 -151 -98 -271v2l109 -129q11 -14 9.5 -31.5t-15.5 -28.5q-11 -10 -27 -10zM512 83q32 0 57 5v-2l-232 261q-12 12 -11 30t14 29q13 12 30.5 11
t29.5 -14l257 -288h-1q36 17 66 41v-1l-199 237q-11 13 -9.5 31t14.5 28q13 12 30.5 10.5t28.5 -15.5l195 -230l-1 -1q69 94 69 205q0 140 -99 239t-239 99t-239 -99t-99 -239q0 -139 99 -238t239 -99z" />
    <glyph glyph-name="r" unicode="r" horiz-adv-x="958" 
d="M182 -5q-18 0 -30.5 12.5t-12.5 30.5v762q0 32 31 42q11 3 32.5 8t73 10.5t101 4t109 -19t103.5 -51.5q123 -96 118 -300q-1 -18 -14 -30t-31 -11v1h1v-1q-17 0 -29.5 13t-11.5 30q3 162 -86 230q-105 82 -313 41l1 1v-730q0 -18 -12 -30.5t-30 -12.5zM619 -32
q-17 0 -33 14l1 1l-15 17l-250 299q-10 14 -8.5 31.5t14.5 28.5v-1l1 1l-1 1q14 10 31.5 8.5t28.5 -14.5h-1l26 -30l239 -286q10 -14 8.5 -31.5t-14.5 -28.5v1l-1 -1h1q-11 -10 -27 -10zM816 -16q-21 0 -32 16l-388 468q-11 13 -9 31t15 29t31 9.5t28 -14.5l389 -469
q11 -15 9 -32t-15 -29q-14 -9 -28 -9z" />
    <glyph glyph-name="s" unicode="s" horiz-adv-x="853" 
d="M403 -27q-149 0 -269 106q-14 12 -15 29.5t11 30.5q11 13 29 14.5t31 -9.5l-1 -1h1q71 -61 154.5 -78.5t160.5 12.5q61 25 98.5 71t44.5 105q8 79 -40 136q-48 54 -133 59v1h1v-1q-18 0 -30 13.5t-11 31.5q1 17 14 29t30 11q119 -5 193 -89q72 -83 61 -199
q-9 -82 -61.5 -148.5t-134.5 -98.5q-66 -25 -134 -25zM393 300q-3 0 -6 0.5t-4 0.5q-52 15 -93.5 37.5t-67 47t-44.5 52t-26.5 52t-13.5 48.5t-4 41t1 29q11 102 85.5 176.5t171.5 81.5q141 11 232 -74q36 -36 57.5 -87t19.5 -96q-1 -17 -14.5 -28.5t-31.5 -10.5
q-17 1 -28.5 14t-11.5 30h1v1h-1q2 27 -12.5 59.5t-38.5 56.5q-60 59 -165 50q-67 -5 -119.5 -57.5t-59.5 -123.5q-8 -75 40.5 -131.5t145.5 -85.5q16 -4 25 -20t4 -32q-10 -31 -42 -31z" />
    <glyph glyph-name="t" unicode="t" horiz-adv-x="1108" 
d="M649 -11q-17 0 -30 13t-13 30v785q0 18 12.5 30t30.5 12h347q18 0 30.5 -12t12.5 -30t-12.5 -30.5t-30.5 -12.5h-305v-742q0 -17 -12.5 -30t-29.5 -13zM438 -11q-17 0 -30 13t-13 30v742h-283q-18 0 -30.5 12.5t-12.5 30.5t12.5 30t30.5 12h326q18 0 30.5 -12t12.5 -30
v-785q0 -17 -13 -30t-30 -13z" />
    <glyph glyph-name="u" unicode="u" horiz-adv-x="928" 
d="M464 -32q-136 0 -234 82t-101 200v2v570q0 17 13 30t30 13h584q17 0 30 -13t13 -30v-571l-4 -29l2 23l1 -1q-5 -115 -102.5 -195.5t-231.5 -80.5zM464 54q87 0 154.5 44t87.5 112l1 -1h-487l1 1q20 -68 88 -112t155 -44zM710 295l-1 -1q-16 71 -85.5 118.5t-159.5 47.5
q-91 0 -160.5 -47.5t-85.5 -118.5l-1 1h493zM212 447q100 98 252 98t252 -98l-2 -1v333h-500v-333z" />
    <glyph glyph-name="v" unicode="v" horiz-adv-x="951" 
d="M567 -11q-14 0 -25 8.5t-15 21.5l-256 785q-4 17 4 32.5t25 20.5q16 5 31.5 -3t20.5 -25l219 -672l218 672q5 17 21 25.5t33 3.5v-1l1 -1v1q16 -6 23.5 -21.5t2.5 -31.5l-254 -785l-1 -1h1q-10 -29 -40 -29h-5h-4zM376 -11q-13 0 -24.5 8.5t-15.5 21.5l-256 785
q-5 17 3.5 33t25.5 20q16 5 32 -3t21 -24l255 -785q5 -17 -3.5 -33t-24.5 -20h-1l1 -1q-8 -2 -13 -2z" />
    <glyph glyph-name="w" unicode="w" horiz-adv-x="1352" 
d="M567 -11q-14 0 -25 8.5t-15 21.5l-256 785q-4 17 4 32.5t25 20.5q16 5 31.5 -3t20.5 -25l219 -672l218 672q5 17 21 25.5t33 3.5v-1l1 -1v1q16 -6 23.5 -21.5t2.5 -31.5l-117 -360l135 -392q7 -17 -1.5 -33.5t-25.5 -21.5q-4 -2 -13 -2q-30 0 -40 28l-98 286l-94 -290
l-1 -1h1q-10 -29 -40 -29h-5h-4zM376 -11q-13 0 -24.5 8.5t-15.5 21.5l-256 785q-5 17 3.5 33t25.5 20q16 5 32 -3t21 -24l255 -785q5 -17 -3.5 -33t-24.5 -20h-1l1 -1q-8 -2 -13 -2zM976 -11q-3 0 -13 2q-17 5 -25 21t-2 33l254 785q5 16 20.5 24t32.5 4v-1v-1l1 1
q17 -5 24.5 -21t1.5 -32l-253 -785q-4 -13 -16 -21.5t-25 -8.5z" />
    <glyph glyph-name="x" unicode="x" horiz-adv-x="832" 
d="M132 -11q-25 0 -39 24h1v1l-1 -1q-11 24 5 45h1l18 24l267 330q12 15 32 15t34 -15l284 -353q16 -21 5 -46q-11 -24 -38 -24h-569zM612 75l-196 242l-195 -242h391zM416 500q-17 0 -29 12v1l-1 -1l-284 274q-20 22 -9 46q10 27 39 27h569q29 0 39 -26q11 -25 -9 -47
l-285 -274q-12 -12 -30 -12zM595 774h-358l179 -172z" />
    <glyph glyph-name="y" unicode="y" horiz-adv-x="981" 
d="M406 -11q-17 0 -30 13t-13 30v470v-1l-272 287q-12 13 -12 30.5t13 29.5t30.5 11t30.5 -13l263 -277l21 -23v1q12 -14 12 -29v-486q0 -17 -13 -30t-30 -13zM575 -11q-17 0 -30 13t-13 30v486q0 16 12 30l284 297q12 13 30 14t31 -11q12 -13 12.5 -30.5t-11.5 -30.5
l-273 -286v1v-470q0 -17 -12.5 -30t-29.5 -13z" />
    <glyph glyph-name="z" unicode="z" horiz-adv-x="1008" 
d="M161 24q-11 0 -23 7q-14 10 -18 27t6 32l476 689h-410q-18 0 -30 12.5t-12 30.5q0 17 12.5 30t29.5 13h491q25 0 38 -23q11 -22 -3 -44v1l-18 -27l-504 -731q-14 -17 -35 -17zM353 -11q-25 0 -38 23q-12 23 3 44l493 707q10 14 27.5 17.5t31.5 -6.5t17.5 -27.5
t-6.5 -31.5l-446 -640l385 3q17 0 29.5 -12t13.5 -29h-1v-1h1q0 -17 -13 -30t-30 -13z" />
    <glyph glyph-name="exclamdown" unicode="&#xa1;" 
 />
    <glyph glyph-name="periodcentered" unicode="&#xb7;" 
 />
    <glyph glyph-name="questiondown" unicode="&#xbf;" 
 />
    <glyph glyph-name="bullet" unicode="&#x2022;" 
 />
    <glyph glyph-name="ellipsis" unicode="&#x2026;" 
 />
    </font>
</defs>
</svg>
